<svg xmlns="http://www.w3.org/2000/svg" viewBox="0 0 278.81 213.01"><defs><style>.cls-1{fill:#c4e4d1;}.cls-2{fill:#fff;}.cls-3{fill:#2bb45e;}</style></defs><g id="Layer_2" data-name="Layer 2"><g id="Layer_1-2" data-name="Layer 1"><path class="cls-1" d="M120,6.69A391.93,391.93,0,0,1,39.26,36.06c-36.7,7.34-44,36.7-36.7,73.41s66.06,22,73.41,44,22,66.07,117.45,58.73,95.44-88.09,73.41-102.77S215.45,94.74,215.45,58,171.4-15.37,120,6.65"/><path class="cls-1" d="M230.13,14s-8.08,42.73,10.64,50.73,40.75-6.68,33.4-28.7-36.7-36.71-44-22"/><path class="cls-2" d="M162.59,206.42c-45.73,0-75.76-17.18-89.19-51.39l-3.16-.66h-.66c-14.32-2.94-44-9.1-50.43-40.67C6.23,49,51.37,34.86,65.25,32a244.41,244.41,0,0,0,48.89-17.91l1.51-.66a79.55,79.55,0,0,1,31.78-6.68A72.29,72.29,0,0,1,188,19.15,34.56,34.56,0,0,1,209,12.25,55.25,55.25,0,0,1,257.4,49.61,42.19,42.19,0,0,1,252,88.15a40.88,40.88,0,0,1-3.45,4,59.39,59.39,0,0,1,11.09,55.13c-8.74,33.4-39,55.28-80.76,58.73-5.58.44-10.93.66-16,.66M147.39,9.19a78.12,78.12,0,0,0-30.83,6.53l-1.25.59A257,257,0,0,1,66.06,34.42c-13.44,2.72-56.53,16.37-44,78.77,6,30,34.65,35.9,48.45,38.76h.66l3.82.81h.66v.66c12.48,33.62,41.84,50.5,87,50.5a129.9,129.9,0,0,0,15.78-.66c40.89-3.16,70.33-24.3,78.55-56.38a56.22,56.22,0,0,0-11.33-53.56l-.88-.89.88-1a43.86,43.86,0,0,0,4-4.62,39.86,39.86,0,0,0,5.07-36.2,52.49,52.49,0,0,0-45.73-36A31.4,31.4,0,0,0,188.8,22l-.74.59-.8-.59A70.38,70.38,0,0,0,147.39,9.52"/><path class="cls-3" d="M63.22,187.08V22.15q35.58,0,71.15,0a26.93,26.93,0,0,1,21.18,9.65,10.17,10.17,0,0,1,.9,1.52c7.36-9.31,16.8-12.06,27.73-11.08,0-5.25,0-10.17,0-15.09,0-2.3-.11-4.6-.17-6.9h33.2A9.73,9.73,0,0,0,217,1.32q0,9.85,0,19.71a8.91,8.91,0,0,0,.16,1.15h32.73v164.9Zm87.94-49.29v-2q0-42.68,0-85.35c0-10.39-7-17.33-17.42-17.33H74.27v99.25h59.32a41.83,41.83,0,0,1,4.19.2A27.65,27.65,0,0,1,151.16,137.79ZM239,132.35V33.2H217v2.44q0,33.66,0,67.31c0,1.1,0,2.19-.1,3.28a16.31,16.31,0,0,1-23.27,13.56c-6.58-3.19-9.49-8.7-9.48-15.93q0-34.12,0-68.23V33.1c-1.92,0-3.67,0-5.42,0a16.38,16.38,0,0,0-16.64,16.66q0,43.23,0,86.46c0,.44.1.88.15,1.39,7.67-4.53,10.39-5.26,19.31-5.26H239Zm.05,11.06a4.63,4.63,0,0,0-.69-.11c-20.11,0-40.22-.06-60.32.09a17.67,17.67,0,0,0-7.13,1.88c-5.38,2.56-9.1,9-8.59,14.17a4.9,4.9,0,0,0,.65-.31,29,29,0,0,1,17-4.92c18.95.07,37.91,0,56.86,0H239ZM74.25,154.24h2.3q28.8,0,57.6,0a27.82,27.82,0,0,1,16,4.75,7.81,7.81,0,0,0,1,.49c-.05-.72,0-1.27-.12-1.8a16.37,16.37,0,0,0-16.6-14.37q-29.43,0-58.87,0H74.25Zm164.77,11c-.39,0-.63-.08-.86-.08-20.06,0-40.12,0-60.18.06A16.38,16.38,0,0,0,163.1,176H239Zm-89,10.77a9.06,9.06,0,0,0-.4-1.24c-3.07-6.16-8-9.55-14.93-9.58-19.69-.1-39.39,0-59.09,0-.46,0-.92.08-1.38.12V176ZM195.22,11.27c0,9.44-.06,18.73,0,28a4.77,4.77,0,0,0,3.38,4.36c3.68,1.46,7.38-1.19,7.41-5.44.06-8.63,0-17.26,0-25.89a7.16,7.16,0,0,0-.15-1.05Zm10.73,71V54.63H195.27V82.25ZM206,93.46H195.16c0,4-.1,7.92,0,11.8a5.41,5.41,0,0,0,10.81,0C206.14,101.37,206,97.48,206,93.46Z"/><path class="cls-2" d="M151.16,137.79a27.65,27.65,0,0,0-13.38-5.24,41.83,41.83,0,0,0-4.19-.2H74.27V33.1h59.47c10.44,0,17.41,6.94,17.42,17.33q0,42.67,0,85.35Z"/><path class="cls-2" d="M239,132.35h-57.4c-8.92,0-11.64.73-19.31,5.26,0-.51-.15-1-.15-1.39q0-43.23,0-86.46A16.38,16.38,0,0,1,178.76,33.1c1.75,0,3.5,0,5.42,0v2.53q0,34.11,0,68.23c0,7.23,2.9,12.74,9.48,15.93a16.31,16.31,0,0,0,23.27-13.56c.08-1.09.1-2.18.1-3.28q0-33.65,0-67.31V33.2H239Z"/><path class="cls-2" d="M239,143.41v10.83h-2.2c-18.95,0-37.91,0-56.86,0a29,29,0,0,0-17,4.92,4.9,4.9,0,0,1-.65.31c-.51-5.2,3.21-11.61,8.59-14.17a17.67,17.67,0,0,1,7.13-1.88c20.1-.15,40.21-.09,60.32-.09A4.63,4.63,0,0,1,239,143.41Z"/><path class="cls-2" d="M74.25,154.24v-11h1.31q29.43,0,58.87,0A16.37,16.37,0,0,1,151,157.67c.08.53.07,1.08.12,1.8a7.81,7.81,0,0,1-1-.49,27.82,27.82,0,0,0-16-4.75q-28.8,0-57.6,0Z"/><path class="cls-2" d="M239,165.27V176H163.1A16.38,16.38,0,0,1,178,165.25c20.06-.09,40.12-.06,60.18-.06C238.39,165.19,238.63,165.23,239,165.27Z"/><path class="cls-2" d="M150.06,176H74.26V165.31c.46,0,.92-.12,1.38-.12,19.7,0,39.4-.07,59.09,0,6.89,0,11.86,3.42,14.93,9.58A9.06,9.06,0,0,1,150.06,176Z"/><path class="cls-2" d="M195.22,11.27h10.69a7.16,7.16,0,0,1,.15,1.05c0,8.63.05,17.26,0,25.89,0,4.25-3.73,6.9-7.41,5.44a4.77,4.77,0,0,1-3.38-4.36C195.16,30,195.22,20.71,195.22,11.27Z"/><path class="cls-2" d="M206,82.25H195.27V54.63H206Z"/><path class="cls-2" d="M206,93.46c0,4,.1,7.91,0,11.79a5.41,5.41,0,0,1-10.81,0c-.14-3.88,0-7.77,0-11.8Z"/></g></g></svg>